<svg width="194" height="171" viewBox="0 0 194 171" fill="none" xmlns="http://www.w3.org/2000/svg">
<rect width="194" height="171" fill="white"/>
<path d="M41.5 4L36.9625 12.25C39.6709 13.9513 42.3088 15.5623 44.8832 17.0824C45.3553 17.3611 45.8252 17.6368 46.2931 17.9095L50.7774 10.0167C47.7804 8.16765 44.6933 6.16143 41.5 4Z" fill="black"/>
<path d="M32.425 20.5L27.6812 29.125C30.7282 31.1872 33.6985 33.1353 36.6003 34.9695L41.5787 26.2071C41.5525 26.1913 41.5263 26.1755 41.5 26.1597C38.5557 24.3878 35.5336 22.5013 32.425 20.5Z" fill="black"/>
<path d="M50.7774 31.5L55.4735 23C52.4996 21.4427 49.4438 19.7455 46.2931 17.9095L41.5787 26.2071C44.7307 28.1027 47.7934 29.8669 50.7774 31.5Z" fill="black"/>
<path d="M55.4735 23C59.3654 25.038 63.1171 26.8364 66.7581 28.393C67.6765 25.7057 68.5858 22.9007 69.5 19.9533C66.2563 18.5657 62.9326 16.9412 59.5 15.0832L55.4735 23Z" fill="black"/>
<path d="M22.9375 37.75L18.1938 46.375C21.4964 47.7217 24.6573 49.0777 27.6812 50.4506C27.714 50.4654 27.7467 50.4803 27.7793 50.4951L32.0291 43.0152L22.9375 37.75Z" fill="black"/>
<path d="M32.2188 43.125L41.5 48.5L44.8832 40C42.2977 38.498 39.6596 36.8974 36.9625 35.1981C36.8419 35.1221 36.7212 35.0459 36.6003 34.9695L32.0291 43.0152L32.2188 43.125Z" fill="black"/>
<path d="M63.3158 37.7875C59.2807 35.9678 55.1121 33.8722 50.7774 31.5L44.8832 40C50.0802 42.7542 54.7976 45.2462 59.1375 47.4674C60.6045 44.3646 61.985 41.1598 63.3158 37.7875Z" fill="black"/>
<path d="M75.8907 42.696C76.8802 39.5403 77.831 36.2399 78.7719 32.755C74.8811 31.6149 70.8909 30.1598 66.7581 28.393C65.6327 31.6861 64.4938 34.8025 63.3158 37.7875C67.6481 39.7413 71.8263 41.3771 75.8907 42.696Z" fill="black"/>
<path d="M13.45 55L8.225 64.5C11.4017 65.9809 14.4242 67.4587 17.2986 68.942L22.6373 59.5454C19.7138 58.0291 16.6529 56.5167 13.45 55Z" fill="black"/>
<path d="M22.9375 59.7014C25.9963 61.2932 28.904 62.8896 31.666 64.5L36.9625 54.9453C34.0528 53.4366 30.9936 51.9562 27.7793 50.4951L22.6373 59.5454L22.9375 59.7014Z" fill="black"/>
<path d="M54.8848 55.7435L41.5 48.5L36.9625 54.9453C42.1011 57.6097 46.7129 60.1136 50.8518 62.5305C52.2776 60.2733 53.6164 58.0208 54.8848 55.7435Z" fill="black"/>
<path d="M72.0268 53.715C68.0858 51.9564 63.8326 49.8703 59.1375 47.4674C57.801 50.2942 56.3927 53.0364 54.8848 55.7435L68.7048 63.7695C70.1597 60.8067 70.7886 56.8561 72.0268 53.715Z" fill="black"/>
<path d="M44.0173 72.5153C48.4216 75.7315 52.3251 79.0556 55.7658 82.5539C58.7489 78.6016 62.0465 75.6755 64.3534 71.7984C60.6893 69.0577 55.7529 65.3926 50.8518 62.5305C48.7751 65.8183 46.514 69.1161 44.0173 72.5153Z" fill="black"/>
<path d="M26.477 74C30.4348 76.341 34.0507 78.7184 37.3464 81.1641C39.7485 78.1786 41.9627 75.3126 44.0173 72.5153C40.2704 69.7791 36.1611 67.1209 31.666 64.5L26.477 74Z" fill="black"/>
<path d="M12 78.268C15.201 79.882 18.1978 81.5112 21 83.1722L26.477 74C23.6341 72.3185 20.6148 70.6558 17.4109 69L17.2986 68.942L12 78.268Z" fill="black"/>
<path d="M30.4587 89.4638C34.6327 92.6117 38.2245 95.9257 41.2883 99.5C43.972 96.6459 46.4472 93.9037 48.7382 91.2401C45.4614 87.7149 41.6807 84.3804 37.3464 81.1641C35.2064 83.8238 32.9172 86.5784 30.4587 89.4638Z" fill="black"/>
<path d="M55.5136 99.8768C58.6851 97.4484 61.5129 95.1251 64.1623 92.7703C61.7401 89.1805 58.9513 85.7925 55.7658 82.5539C53.6312 85.382 51.2999 88.2619 48.7382 91.2401C51.2957 93.9914 53.5462 96.8587 55.5136 99.8768Z" fill="black"/>
<path d="M69.8941 103.127C74.0663 101.074 78.2875 99.3671 83.2619 97.8031C81.5137 91.7042 81.3464 88.2356 77.5864 83.4789C73.9473 87.4986 68.0472 89.3174 64.1623 92.7703C66.3697 96.0416 68.2726 99.4805 69.8941 103.127Z" fill="black"/>
<path d="M104.336 131.16C104.463 125.148 104.75 119.781 105.256 114.942C102.056 114.594 98.9134 114.423 95.7733 114.425L95.7926 131.015C98.6405 130.996 101.474 131.044 104.336 131.16Z" fill="black"/>
<path d="M114.08 146C114.139 141.011 114.354 136.309 114.744 131.867C111.186 131.532 107.741 131.298 104.336 131.16C104.241 135.718 104.237 140.647 104.3 146H114.08Z" fill="black"/>
<path d="M124.57 156C124.455 152.532 124.409 149.201 124.438 146H114.08C114.042 149.212 114.069 152.543 114.156 156H124.57Z" fill="black"/>
<path d="M125 165H135.5C135.24 161.887 135.039 158.889 134.899 156H124.57C124.666 158.902 124.811 161.9 125 165Z" fill="black"/>
<path d="M105.125 165H114.5C114.345 161.908 114.229 158.909 114.156 156H104.597C104.732 158.916 104.909 161.915 105.125 165Z" fill="black"/>
<path d="M95.8101 146L95.7785 156H104.597C104.438 152.553 104.337 149.221 104.3 146H95.8101Z" fill="black"/>
<path d="M86.9482 146H95.8101L95.7926 131.015C92.8419 131.034 89.8757 131.124 86.8459 131.282C86.927 135.816 86.9488 140.705 86.9482 146Z" fill="black"/>
<path d="M74.4832 116.915C75.594 121.61 76.3848 126.625 76.8878 132.016C80.3181 131.696 83.6181 131.45 86.8459 131.282C86.7379 125.255 86.525 119.856 86.1202 114.965C82.3431 115.38 78.4937 116.032 74.4832 116.915Z" fill="black"/>
<path d="M60.184 108.483C61.736 111.979 62.9976 115.678 63.9964 119.619C67.6403 118.557 71.1185 117.655 74.4832 116.915C73.318 111.989 71.8007 107.414 69.8941 103.127C66.7314 104.683 63.597 106.439 60.184 108.483Z" fill="black"/>
<path d="M46.4091 106.5C47.968 109.027 49.3232 111.685 50.489 114.5C54.0625 112.24 57.2277 110.253 60.184 108.483C58.8483 105.473 57.2973 102.613 55.5136 99.8768C52.7714 101.976 49.7722 104.155 46.4091 106.5Z" fill="black"/>
<path d="M53.3198 123C54.2647 126.623 54.9752 130.487 55.4735 134.63C59.2839 134.085 62.8897 133.599 66.3365 133.172C65.8355 128.343 65.0668 123.842 63.9964 119.619C60.596 120.609 57.0513 121.737 53.3198 123Z" fill="black"/>
<path d="M67.0515 146H77.5617C77.5172 141.068 77.2984 136.417 76.8878 132.016C73.5152 132.33 70.0165 132.717 66.3365 133.172C66.7553 137.209 66.987 141.476 67.0515 146Z" fill="black"/>
<path d="M86.7765 156C86.8893 152.554 86.9478 149.223 86.9482 146H77.5617C77.5906 149.211 77.5456 152.542 77.4316 156H86.7765Z" fill="black"/>
<path d="M86.375 165H95.75L95.7785 156H86.7765C86.6809 158.917 86.5464 161.916 86.375 165Z" fill="black"/>
<path d="M66.5 165H77C77.1908 161.906 77.3356 158.908 77.4316 156H66.9443C66.8484 158.901 66.6989 161.899 66.5 165Z" fill="black"/>
<path d="M67.0515 146H56.3038C56.4056 149.183 56.4171 152.512 56.3454 156H66.9443C67.059 152.531 67.0971 149.201 67.0515 146Z" fill="black"/>
<path d="M121.149 103.234C117.171 101.247 113.136 99.5649 108.607 98.0544C107.003 102.931 105.933 108.465 105.256 114.942C109.043 115.354 112.909 116.013 116.942 116.927C118.011 112.008 119.4 107.462 121.149 103.234Z" fill="black"/>
<path d="M125.048 133.068C125.484 128.279 126.161 123.819 127.111 119.647C123.58 118.572 120.206 117.666 116.942 116.927C115.935 121.561 115.213 126.525 114.744 131.867C118.06 132.179 121.475 132.578 125.048 133.068Z" fill="black"/>
<path d="M124.438 146H134.672C134.696 141.987 134.877 138.206 135.227 134.63C131.674 134.033 128.296 133.513 125.048 133.068C124.678 137.133 124.481 141.435 124.438 146Z" fill="black"/>
<path d="M134.515 100.589C131.365 98.3659 128.604 96.1206 126.018 93.7305C124.155 96.716 122.539 99.8748 121.149 103.234C124.257 104.787 127.331 106.525 130.577 108.513C131.711 105.735 133.019 103.1 134.515 100.589Z" fill="black"/>
<path d="M137.153 123C137.883 120.012 138.783 117.186 139.868 114.5C136.532 112.274 133.485 110.294 130.577 108.513C129.159 111.989 128.012 115.689 127.111 119.647C130.317 120.624 133.653 121.741 137.153 123Z" fill="black"/>
<path d="M143.895 106.5C145.398 104.053 147.104 101.727 149.026 99.5C146.572 96.3819 144.287 93.4009 142.148 90.5052C139.19 93.6459 136.66 96.9895 134.515 100.589C137.291 102.548 140.369 104.491 143.895 106.5Z" fill="black"/>
<path d="M152.986 81.177C151.007 78.1427 149.16 75.2399 147.423 72.4218C143.091 75.3044 139.254 78.3491 135.873 81.6142C137.822 84.5237 139.904 87.4675 142.148 90.5052C145.269 87.1907 148.866 84.1022 152.986 81.177Z" fill="black"/>
<path d="M159.95 65.1928L155.948 56.1629C150.906 58.8075 146.338 61.2694 142.204 63.6345C143.839 66.5049 145.569 69.4151 147.423 72.4218C151.21 69.9014 155.377 67.5047 159.95 65.1928Z" fill="black"/>
<path d="M151.5 49.5309L155.948 56.1629C158.617 54.8828 161.408 53.6248 164.324 52.3831L160.142 44.9038L151.5 49.5309Z" fill="black"/>
<path d="M169.3 40L164.625 31.5C161.617 33.5042 158.683 35.3922 155.813 37.1637L160.142 44.9038L169.3 40Z" fill="black"/>
<path d="M142.5 34.1245L147 42.3472C149.873 40.7474 152.808 39.0194 155.813 37.1637L151.186 28.8899C148.225 30.7842 145.335 32.5292 142.5 34.1245Z" fill="black"/>
<path d="M159.95 23L154.725 13.5C151.705 15.6383 148.77 17.6205 145.906 19.4477L145.909 19.4533L151.186 28.8899C154.039 27.0651 156.956 25.1017 159.95 23Z" fill="black"/>
<path d="M178.65 57L173.975 48.5C170.616 49.7812 167.4 51.0731 164.324 52.3831L169.093 60.9103C172.126 59.5883 175.31 58.2877 178.65 57Z" fill="black"/>
<path d="M164.72 74C167.593 72.4683 170.649 70.9721 173.896 69.5L169.093 60.9103C165.879 62.3106 162.834 63.7349 159.95 65.1928L164.72 74Z" fill="black"/>
<path d="M188 74L183.325 65.5C180.016 66.8191 176.876 68.1494 173.896 69.5L173.946 69.5891L178.799 78.268C181.697 76.8372 184.762 75.4183 188 74Z" fill="black"/>
<path d="M169.617 83.1722L164.72 74C160.407 76.2992 156.506 78.6785 152.986 81.177C154.865 84.0563 156.862 87.054 159 90.21C162.176 87.7783 165.706 85.4461 169.617 83.1722Z" fill="black"/>
<path d="M116.411 83.4789C119.629 87.3144 122.677 90.6433 126.018 93.7305C128.752 89.3471 132.017 85.3373 135.873 81.6142C133.613 78.2411 131.533 74.9141 129.59 71.5403C124.158 75.3741 119.835 79.2132 116.411 83.4789Z" fill="black"/>
<path d="M138.357 56.6217L125.339 63.6455C126.688 66.3327 128.099 68.9503 129.59 71.5403C133.266 68.9461 137.449 66.3543 142.204 63.6345C140.863 61.2806 139.586 58.9534 138.357 56.6217Z" fill="black"/>
<path d="M151.5 49.5309L147 42.3472C142.507 44.849 138.379 47.084 134.546 49.0581C135.775 51.6104 137.038 54.1186 138.357 56.6217L151.5 49.5309Z" fill="black"/>
<path d="M132.214 15.0832L137.452 24.5C140.207 22.9726 143.021 21.2889 145.906 19.4477L140.632 10.0167C137.747 11.8697 134.946 13.558 132.214 15.0832Z" fill="black"/>
<path d="M142.5 34.1245L137.452 24.5C133.626 26.6217 129.912 28.4418 126.273 29.9634C127.675 33.522 129.062 36.8875 130.467 40.1266C134.386 38.4423 138.384 36.4412 142.5 34.1245Z" fill="black"/>
<path d="M130.467 40.1266C125.964 42.0619 121.564 43.579 117.205 44.6762C118.573 48.3973 119.967 51.8991 121.42 55.2483C125.427 53.5847 129.757 51.5251 134.546 49.0581C133.15 46.1567 131.8 43.1985 130.467 40.1266Z" fill="black"/>
<path d="M122.471 19.9533C118.368 21.7461 114.397 23.133 110.5 24.1207C111.535 27.6355 112.557 30.9602 113.578 34.124C117.745 33.1543 121.956 31.7691 126.273 29.9634C125.026 26.7954 123.766 23.4744 122.471 19.9533Z" fill="black"/>
<path d="M91.5 25.7745C88.7703 25.5483 83.7713 24.7433 81 24.1207C80.254 27.1273 79.516 29.9989 78.7719 32.755C82.9439 33.9775 87.0016 34.8377 90.998 35.3314C92.6068 35.5302 94.2056 35.6695 95.798 35.7492L95.8101 25.9656C94.3742 25.9575 92.9385 25.8937 91.5 25.7745Z" fill="black"/>
<path d="M113.578 34.124C109.415 35.0927 105.297 35.6467 101.161 35.7908C99.3784 35.853 97.5923 35.839 95.798 35.7492L95.7841 46.6774C97.8639 46.8129 99.9298 46.8537 101.989 46.7999C107.071 46.6672 112.11 45.9584 117.205 44.6762C115.982 41.3499 114.78 37.8484 113.578 34.124Z" fill="black"/>
<path d="M75.8907 42.696C74.6786 46.5616 73.4083 50.2102 72.0268 53.715C77.5063 56.1601 82.382 57.972 87.0017 59.1219C89.9994 59.8681 92.8893 60.3355 95.7665 60.5164L95.7841 46.6774C93.7691 46.5462 91.7412 46.3261 89.6943 46.0169C85.2054 45.3388 80.6253 44.2324 75.8907 42.696Z" fill="black"/>
<path d="M108.607 98.0544C110.441 92.4806 112.972 87.7645 116.411 83.4789C111.361 78.9472 106.67 78.6965 96.4486 76.925L95.8101 97.8031L108.607 98.0544Z" fill="black"/>
<path d="M68.7048 63.7695C67.3712 66.485 65.9306 69.1478 64.3534 71.7984C69.0934 75.3438 74.5733 79.667 77.5864 83.4789C86.2387 79.9202 90.4082 82.3129 96.4486 76.925L68.7048 63.7695Z" fill="black"/>
<path d="M83.2619 97.8031C84.6956 102.805 85.5792 108.431 86.1202 114.965C89.3727 114.608 92.5715 114.426 95.7733 114.425L95.8101 97.8031H83.2619Z" fill="black"/>
<path d="M125.339 63.6455C123.976 60.9319 122.676 58.1473 121.42 55.2483C106.557 60.6209 100.779 58.967 95.7665 60.5164L96.4486 76.925C105.982 68.1692 113.224 67.1318 125.339 63.6455Z" fill="black"/>
<path d="M32.425 20.5L27.6812 29.125M32.425 20.5L36.9625 12.25M32.425 20.5C35.5336 22.5013 38.5557 24.3878 41.5 26.1597C41.5263 26.1755 41.5525 26.1913 41.5787 26.2071M159.95 23L164.625 31.5M159.95 23L154.725 13.5M159.95 23C156.956 25.1017 154.039 27.0651 151.186 28.8899M13.45 55L18.1938 46.375M13.45 55L8.225 64.5M13.45 55C16.6529 56.5167 19.7138 58.0291 22.6373 59.5454M77 165H86.375M77 165H66.5M77 165C77.1908 161.906 77.3356 158.908 77.4316 156M114.5 165H105.125M114.5 165H125M114.5 165C114.345 161.908 114.229 158.909 114.156 156M178.65 57L173.975 48.5M178.65 57L183.325 65.5M178.65 57C175.31 58.2877 172.126 59.5883 169.093 60.9103M169.3 40L173.975 48.5M169.3 40L164.625 31.5M169.3 40L160.142 44.9038M95.75 165H86.375M95.75 165H105.125M95.75 165L95.7785 156M22.9375 37.75L18.1938 46.375M22.9375 37.75L27.6812 29.125M22.9375 37.75L32.0291 43.0152M18.1938 46.375C21.4964 47.7217 24.6573 49.0777 27.6812 50.4506C27.714 50.4654 27.7467 50.4803 27.7793 50.4951M86.375 165C86.5464 161.916 86.6809 158.917 86.7765 156M105.125 165C104.909 161.915 104.732 158.916 104.597 156M173.975 48.5C170.616 49.7812 167.4 51.0731 164.324 52.3831M27.6812 29.125C30.7282 31.1872 33.6985 33.1353 36.6003 34.9695M164.625 31.5C161.617 33.5042 158.683 35.3922 155.813 37.1637M36.9625 12.25L41.5 4C44.6933 6.16143 47.7804 8.16765 50.7774 10.0167M36.9625 12.25C39.6709 13.9513 42.3088 15.5623 44.8832 17.0824C45.3553 17.3611 45.8252 17.6368 46.2931 17.9095M154.725 13.5L149.5 4C146.452 6.1695 143.501 8.17453 140.632 10.0167M154.725 13.5C151.705 15.6383 148.77 17.6205 145.906 19.4477M8.225 64.5L3 74C6.16485 75.4185 9.16263 76.8373 12 78.268M8.225 64.5C11.4017 65.9809 14.4242 67.4587 17.2986 68.942M66.5 165H56C56.1695 161.887 56.286 158.889 56.3454 156M66.5 165C66.6989 161.899 66.8484 158.901 66.9443 156M125 165H135.5C135.24 161.887 135.039 158.889 134.899 156M125 165C124.811 161.9 124.666 158.902 124.57 156M183.325 65.5L188 74C184.762 75.4183 181.697 76.8372 178.799 78.268M183.325 65.5C180.016 66.8191 176.876 68.1494 173.896 69.5M59.5 15.0832C56.6716 13.5523 53.7694 11.8628 50.7774 10.0167M59.5 15.0832L55.4735 23M59.5 15.0832C62.9326 16.9412 66.2563 18.5657 69.5 19.9533M55.4735 23L50.7774 31.5M55.4735 23C52.4996 21.4427 49.4438 19.7455 46.2931 17.9095M55.4735 23C59.3654 25.038 63.1171 26.8364 66.7581 28.393M50.7774 31.5L44.8832 40M50.7774 31.5C47.7934 29.8669 44.7307 28.1027 41.5787 26.2071M50.7774 31.5C55.1121 33.8722 59.2807 35.9678 63.3158 37.7875M44.8832 40C42.2977 38.498 39.6596 36.8974 36.9625 35.1981C36.8419 35.1221 36.7212 35.0459 36.6003 34.9695M44.8832 40L41.5 48.5M44.8832 40C50.0802 42.7542 54.7976 45.2462 59.1375 47.4674M41.5 48.5L32.2188 43.125L32.0291 43.0152M41.5 48.5L36.9625 54.9453M41.5 48.5L54.8848 55.7435M36.9625 54.9453L31.666 64.5M36.9625 54.9453C34.0528 53.4366 30.9936 51.9562 27.7793 50.4951M36.9625 54.9453C42.1011 57.6097 46.7129 60.1136 50.8518 62.5305M31.666 64.5C28.904 62.8896 25.9963 61.2932 22.9375 59.7014M31.666 64.5L26.477 74M31.666 64.5C36.1611 67.1209 40.2704 69.7791 44.0173 72.5153M26.477 74C23.6341 72.3185 20.6148 70.6558 17.4109 69M26.477 74L21 83.1722M26.477 74C30.4348 76.341 34.0507 78.7184 37.3464 81.1641M21 83.1722C18.1978 81.5112 15.201 79.882 12 78.268M21 83.1722C24.4403 85.2113 27.5872 87.2983 30.4587 89.4638M12 78.268L17.2986 68.942M17.4109 69C17.3735 68.9807 17.3361 68.9613 17.2986 68.942M17.4109 69L17.2986 68.942M22.9375 59.7014C22.8376 59.6494 22.7376 59.5974 22.6373 59.5454M22.9375 59.7014L22.6373 59.5454M50.7774 10.0167L46.2931 17.9095M132.214 15.0832L137.452 24.5M132.214 15.0832C134.946 13.558 137.747 11.8697 140.632 10.0167M132.214 15.0832C128.871 16.9496 125.632 18.572 122.471 19.9533M137.452 24.5L142.5 34.1245M137.452 24.5C133.626 26.6217 129.912 28.4418 126.273 29.9634M137.452 24.5C140.207 22.9726 143.021 21.2889 145.906 19.4477M142.5 34.1245L147 42.3472M142.5 34.1245C145.335 32.5292 148.225 30.7842 151.186 28.8899M142.5 34.1245C138.384 36.4412 134.386 38.4423 130.467 40.1266M147 42.3472L151.5 49.5309M147 42.3472C149.873 40.7474 152.808 39.0194 155.813 37.1637M147 42.3472C142.507 44.849 138.379 47.084 134.546 49.0581M151.5 49.5309L155.948 56.1629M151.5 49.5309L160.142 44.9038M151.5 49.5309L138.357 56.6217M155.948 56.1629L159.95 65.1928M155.948 56.1629C158.617 54.8828 161.408 53.6248 164.324 52.3831M155.948 56.1629C150.906 58.8075 146.338 61.2694 142.204 63.6345M159.95 65.1928L164.72 74M159.95 65.1928C162.834 63.7349 165.879 62.3106 169.093 60.9103M159.95 65.1928C155.377 67.5047 151.21 69.9014 147.423 72.4218M164.72 74L169.617 83.1722M164.72 74C160.407 76.2992 156.506 78.6785 152.986 81.177M164.72 74C167.593 72.4683 170.649 70.9721 173.896 69.5M169.617 83.1722C172.472 81.5117 175.53 79.8823 178.799 78.268M169.617 83.1722C165.706 85.4461 162.176 87.7783 159 90.21M134.672 146H124.438M134.672 146C134.652 149.184 134.73 152.513 134.899 156M134.672 146C134.696 141.987 134.877 138.206 135.227 134.63M124.438 146H114.08M124.438 146C124.409 149.201 124.455 152.532 124.57 156M124.438 146C124.481 141.435 124.678 137.133 125.048 133.068M114.08 146H104.3M114.08 146C114.139 141.011 114.354 136.309 114.744 131.867M114.08 146C114.042 149.212 114.069 152.543 114.156 156M104.3 146H95.8101M104.3 146C104.237 140.647 104.241 135.718 104.336 131.16M104.3 146C104.337 149.221 104.438 152.553 104.597 156M95.8101 146H86.9482M95.8101 146L95.7926 131.015M95.8101 146L95.7785 156M86.9482 146H77.5617M86.9482 146C86.9488 140.705 86.927 135.816 86.8459 131.282M86.9482 146C86.9478 149.223 86.8893 152.554 86.7765 156M77.5617 146H67.0515M77.5617 146C77.5172 141.068 77.2984 136.417 76.8878 132.016M77.5617 146C77.5906 149.211 77.5456 152.542 77.4316 156M67.0515 146H56.3038M67.0515 146C66.987 141.476 66.7553 137.209 66.3365 133.172M67.0515 146C67.0971 149.201 67.059 152.531 66.9443 156M56.3038 146C56.4056 149.183 56.4171 152.512 56.3454 156M56.3038 146C56.1754 141.986 55.9034 138.204 55.4735 134.63M140.632 10.0167L145.906 19.4477M178.799 78.268L173.946 69.5891L173.896 69.5M151.186 28.8899L155.813 37.1637M151.186 28.8899L145.909 19.4533L145.906 19.4477M155.813 37.1637L160.142 44.9038M160.142 44.9038L164.324 52.3831M164.324 52.3831L169.093 60.9103M169.093 60.9103L173.896 69.5M56.3454 156H66.9443M134.899 156H124.57M53.3198 123C54.2647 126.623 54.9752 130.487 55.4735 134.63M53.3198 123C52.54 120.01 51.6005 117.184 50.489 114.5M53.3198 123C57.0513 121.737 60.596 120.609 63.9964 119.619M137.153 123C136.267 126.625 135.633 130.489 135.227 134.63M137.153 123C137.883 120.012 138.783 117.186 139.868 114.5M137.153 123C133.653 121.741 130.317 120.624 127.111 119.647M149.026 99.5C151.865 96.2112 155.175 93.1385 159 90.21M149.026 99.5C147.104 101.727 145.398 104.053 143.895 106.5M149.026 99.5C146.572 96.3819 144.287 93.4009 142.148 90.5052M110.5 24.1207C114.397 23.133 118.368 21.7461 122.471 19.9533M110.5 24.1207C107.294 24.9334 104.137 25.4758 101 25.7517C99.2661 25.9041 97.538 25.9752 95.8101 25.9656M110.5 24.1207C111.535 27.6355 112.557 30.9602 113.578 34.124M81 24.1207C76.5249 23.1152 74.227 21.9754 69.5 19.9533M81 24.1207C83.7713 24.7433 88.7703 25.5483 91.5 25.7745C92.9385 25.8937 94.3742 25.9575 95.8101 25.9656M81 24.1207C80.254 27.1273 79.516 29.9989 78.7719 32.755M41.2883 99.5C38.2245 95.9257 34.6327 92.6117 30.4587 89.4638M41.2883 99.5C43.1954 101.725 44.898 104.051 46.4091 106.5M41.2883 99.5C43.972 96.6459 46.4472 93.9037 48.7382 91.2401M69.5 19.9533C68.5858 22.9007 67.6765 25.7057 66.7581 28.393M30.4587 89.4638C32.9172 86.5784 35.2064 83.8238 37.3464 81.1641M55.4735 134.63C59.2839 134.085 62.8897 133.599 66.3365 133.172M135.227 134.63C131.674 134.033 128.296 133.513 125.048 133.068M122.471 19.9533C123.766 23.4744 125.026 26.7954 126.273 29.9634M159 90.21C156.862 87.054 154.865 84.0563 152.986 81.177M50.489 114.5C49.3232 111.685 47.968 109.027 46.4091 106.5M50.489 114.5C54.0625 112.24 57.2277 110.253 60.184 108.483M139.868 114.5C141.004 111.687 142.341 109.029 143.895 106.5M139.868 114.5C136.532 112.274 133.485 110.294 130.577 108.513M143.895 106.5C140.369 104.491 137.291 102.548 134.515 100.589M46.4091 106.5C49.7722 104.155 52.7714 101.976 55.5136 99.8768M46.2931 17.9095L41.5787 26.2071M36.6003 34.9695L41.5787 26.2071M36.6003 34.9695L32.0291 43.0152M66.7581 28.393C65.6327 31.6861 64.4938 34.8025 63.3158 37.7875M66.7581 28.393C70.8909 30.1598 74.8811 31.6149 78.7719 32.755M27.7793 50.4951L32.0291 43.0152M27.7793 50.4951L22.6373 59.5454M63.3158 37.7875C61.985 41.1598 60.6045 44.3646 59.1375 47.4674M63.3158 37.7875C67.6481 39.7413 71.8263 41.3771 75.8907 42.696M59.1375 47.4674C57.801 50.2942 56.3927 53.0364 54.8848 55.7435M59.1375 47.4674C63.8326 49.8703 68.0858 51.9564 72.0268 53.715M75.8907 42.696C76.8802 39.5403 77.831 36.2399 78.7719 32.755M75.8907 42.696C74.6786 46.5616 73.4083 50.2102 72.0268 53.715M75.8907 42.696C80.6253 44.2324 85.2054 45.3388 89.6943 46.0169C91.7412 46.3261 93.7691 46.5462 95.7841 46.6774M78.7719 32.755C82.9439 33.9775 87.0016 34.8377 90.998 35.3314C92.6068 35.5302 94.2056 35.6695 95.798 35.7492M17.2986 68.942L22.6373 59.5454M54.8848 55.7435C53.6164 58.0208 52.2776 60.2733 50.8518 62.5305M54.8848 55.7435L68.7048 63.7695M50.8518 62.5305C55.7529 65.3926 60.6893 69.0577 64.3534 71.7984M50.8518 62.5305C48.7751 65.8183 46.514 69.1161 44.0173 72.5153M72.0268 53.715C70.7886 56.8561 70.1597 60.8067 68.7048 63.7695M72.0268 53.715C77.5063 56.1601 82.382 57.972 87.0017 59.1219C89.9994 59.8681 92.8893 60.3355 95.7665 60.5164M68.7048 63.7695C67.3712 66.485 65.9306 69.1478 64.3534 71.7984M68.7048 63.7695L96.4486 76.925M113.578 34.124C109.415 35.0927 105.297 35.6467 101.161 35.7908C99.3784 35.853 97.5923 35.839 95.798 35.7492M113.578 34.124C117.745 33.1543 121.956 31.7691 126.273 29.9634M113.578 34.124C114.78 37.8484 115.982 41.3499 117.205 44.6762M126.273 29.9634C127.675 33.522 129.062 36.8875 130.467 40.1266M117.205 44.6762C121.564 43.579 125.964 42.0619 130.467 40.1266M117.205 44.6762C112.11 45.9584 107.071 46.6672 101.989 46.7999C99.9298 46.8537 97.8639 46.8129 95.7841 46.6774M117.205 44.6762C118.573 48.3973 119.967 51.8991 121.42 55.2483M130.467 40.1266C131.8 43.1985 133.15 46.1567 134.546 49.0581M121.42 55.2483C122.676 58.1473 123.976 60.9319 125.339 63.6455M121.42 55.2483C125.427 53.5847 129.757 51.5251 134.546 49.0581M121.42 55.2483C106.557 60.6209 100.779 58.967 95.7665 60.5164M77.5864 83.4789C74.5733 79.667 69.0934 75.3438 64.3534 71.7984M77.5864 83.4789C73.9473 87.4986 68.0472 89.3174 64.1623 92.7703M77.5864 83.4789C81.3464 88.2356 81.5137 91.7042 83.2619 97.8031M77.5864 83.4789C86.2387 79.9202 90.4082 82.3129 96.4486 76.925M64.3534 71.7984C62.0465 75.6755 58.7489 78.6016 55.7658 82.5539M44.0173 72.5153C48.4216 75.7315 52.3251 79.0556 55.7658 82.5539M44.0173 72.5153C41.9627 75.3126 39.7485 78.1786 37.3464 81.1641M55.7658 82.5539C53.6312 85.382 51.2999 88.2619 48.7382 91.2401M55.7658 82.5539C58.9513 85.7925 61.7401 89.1805 64.1623 92.7703M37.3464 81.1641C41.6807 84.3804 45.4614 87.7149 48.7382 91.2401M48.7382 91.2401C51.2957 93.9914 53.5462 96.8587 55.5136 99.8768M55.5136 99.8768C58.6851 97.4484 61.5129 95.1251 64.1623 92.7703M55.5136 99.8768C57.2973 102.613 58.8483 105.473 60.184 108.483M64.1623 92.7703C66.3697 96.0416 68.2726 99.4805 69.8941 103.127M69.8941 103.127C74.0663 101.074 78.2875 99.3671 83.2619 97.8031M69.8941 103.127C71.8007 107.414 73.318 111.989 74.4832 116.915M69.8941 103.127C66.7314 104.683 63.597 106.439 60.184 108.483M83.2619 97.8031C84.6956 102.805 85.5792 108.431 86.1202 114.965M83.2619 97.8031H95.8101M95.7733 114.425C92.5715 114.426 89.3727 114.608 86.1202 114.965M95.7733 114.425C98.9134 114.423 102.056 114.594 105.256 114.942M95.7733 114.425L95.7926 131.015M95.7733 114.425L95.8101 97.8031M86.1202 114.965C86.525 119.856 86.7379 125.255 86.8459 131.282M86.1202 114.965C82.3431 115.38 78.4937 116.032 74.4832 116.915M104.336 131.16C104.463 125.148 104.75 119.781 105.256 114.942M104.336 131.16C101.474 131.044 98.6405 130.996 95.7926 131.015M104.336 131.16C107.741 131.298 111.186 131.532 114.744 131.867M105.256 114.942C105.933 108.465 107.003 102.931 108.607 98.0544M105.256 114.942C109.043 115.354 112.909 116.013 116.942 116.927M95.7926 131.015C92.8419 131.034 89.8757 131.124 86.8459 131.282M114.744 131.867C115.213 126.525 115.935 121.561 116.942 116.927M114.744 131.867C118.06 132.179 121.475 132.578 125.048 133.068M124.57 156H114.156M114.156 156H104.597M104.597 156H95.7785M95.7785 156H86.7765M86.8459 131.282C83.6181 131.45 80.3181 131.696 76.8878 132.016M74.4832 116.915C75.594 121.61 76.3848 126.625 76.8878 132.016M74.4832 116.915C71.1185 117.655 67.6403 118.557 63.9964 119.619M76.8878 132.016C73.5152 132.33 70.0165 132.717 66.3365 133.172M60.184 108.483C61.736 111.979 62.9976 115.678 63.9964 119.619M63.9964 119.619C65.0668 123.842 65.8355 128.343 66.3365 133.172M86.7765 156H77.4316M77.4316 156H66.9443M121.149 103.234C117.171 101.247 113.136 99.5649 108.607 98.0544M121.149 103.234C119.4 107.462 118.011 112.008 116.942 116.927M121.149 103.234C122.539 99.8748 124.155 96.716 126.018 93.7305M121.149 103.234C124.257 104.787 127.331 106.525 130.577 108.513M108.607 98.0544C110.441 92.4806 112.972 87.7645 116.411 83.4789M108.607 98.0544L95.8101 97.8031M116.942 116.927C120.206 117.666 123.58 118.572 127.111 119.647M125.048 133.068C125.484 128.279 126.161 123.819 127.111 119.647M127.111 119.647C128.012 115.689 129.159 111.989 130.577 108.513M134.515 100.589C131.365 98.3659 128.604 96.1206 126.018 93.7305M134.515 100.589C133.019 103.1 131.711 105.735 130.577 108.513M134.515 100.589C136.66 96.9895 139.19 93.6459 142.148 90.5052M126.018 93.7305C128.752 89.3471 132.017 85.3373 135.873 81.6142M126.018 93.7305C122.677 90.6433 119.629 87.3144 116.411 83.4789M142.148 90.5052C139.904 87.4675 137.822 84.5237 135.873 81.6142M142.148 90.5052C145.269 87.1907 148.866 84.1022 152.986 81.177M152.986 81.177C151.007 78.1427 149.16 75.2399 147.423 72.4218M147.423 72.4218C143.091 75.3044 139.254 78.3491 135.873 81.6142M147.423 72.4218C145.569 69.4151 143.839 66.5049 142.204 63.6345M135.873 81.6142C133.613 78.2411 131.533 74.9141 129.59 71.5403M142.204 63.6345C137.449 66.3543 133.266 68.9461 129.59 71.5403M142.204 63.6345C140.863 61.2806 139.586 58.9534 138.357 56.6217M116.411 83.4789C119.835 79.2132 124.158 75.3741 129.59 71.5403M116.411 83.4789C111.361 78.9472 106.67 78.6965 96.4486 76.925M129.59 71.5403C128.099 68.9503 126.688 66.3327 125.339 63.6455M138.357 56.6217L125.339 63.6455M138.357 56.6217C137.038 54.1186 135.775 51.6104 134.546 49.0581M125.339 63.6455C113.224 67.1318 105.982 68.1692 96.4486 76.925M95.7665 60.5164L95.7841 46.6774M95.7665 60.5164L96.4486 76.925M95.7841 46.6774L95.798 35.7492M95.798 35.7492L95.8101 25.9656M96.4486 76.925L95.8101 97.8031" stroke="black"/>
<circle cx="96.5" cy="77.5" r="8.5" fill="#C4C4C4"/>
</svg>
